<svg width="88" height="88" viewBox="0 0 88 88" fill="none" xmlns="http://www.w3.org/2000/svg">
<path d="M26 0C11.66 0 0 11.66 0 26V62C0 76.34 11.66 88 26 88H62C76.34 88 88 76.34 88 62V26C88 11.66 76.34 0 62 0H26ZM68 16C70.2 16 72 17.8 72 20C72 22.2 70.2 24 68 24C65.8 24 64 22.2 64 20C64 17.8 65.8 16 68 16ZM44 22C56.14 22 66 31.86 66 44C66 56.14 56.14 66 44 66C31.86 66 22 56.14 22 44C22 31.86 31.86 22 44 22ZM44 26C34.08 26 26 34.08 26 44C26 53.92 34.08 62 44 62C53.92 62 62 53.92 62 44C62 34.08 53.92 26 44 26Z" fill="#7745ff"/>
</svg>
