<?xml version="1.0" encoding="UTF-8"?>
<svg id="Layer_1" xmlns="http://www.w3.org/2000/svg" version="1.1" xmlns:xlink="http://www.w3.org/1999/xlink" viewBox="0 0 1000 1000">
  <!-- Generator: Adobe Illustrator 29.0.1, SVG Export Plug-In . SVG Version: 2.1.0 Build 192)  -->
  <defs>
    <style>
      .st0 {
        fill: url(#linear-gradient2);
      }

      .st1 {
        stroke-width: 5px;
      }

      .st1, .st2, .st3 {
        fill: #fff;
      }

      .st1, .st4, .st5, .st3, .st6 {
        stroke-miterlimit: 10;
      }

      .st1, .st4, .st3, .st6 {
        stroke: #fff;
      }

      .st7 {
        fill: url(#linear-gradient1);
      }

      .st4 {
        fill: url(#linear-gradient5);
        stroke-width: 10px;
      }

      .st8, .st5 {
        fill: none;
      }

      .st9, .st5 {
        display: none;
      }

      .st9, .st10 {
        fill: #34b77a;
      }

      .st11 {
        fill: #231f20;
      }

      .st12 {
        fill: url(#linear-gradient4);
      }

      .st5 {
        stroke: #010101;
        stroke-width: 1.5px;
      }

      .st3 {
        stroke-width: .2px;
      }

      .st6 {
        fill: url(#linear-gradient3);
        stroke-width: 7px;
      }

      .st13 {
        fill: url(#linear-gradient);
      }

      .st14 {
        fill: #e1f3f9;
      }
    </style>
    <linearGradient id="linear-gradient" x1="446.9" y1="623.5" x2="446.9" y2="623.5" gradientTransform="translate(0 1002) scale(1 -1)" gradientUnits="userSpaceOnUse">
      <stop offset="0" stop-color="#2484c6"/>
      <stop offset=".8" stop-color="#13b9a1" stop-opacity="1"/>
      <stop offset="1" stop-color="#fff" stop-opacity="0"/>
    </linearGradient>
    <linearGradient id="linear-gradient1" x1="509.6" y1="577.4" x2="509.6" y2="577.4" gradientTransform="translate(0 1002) scale(1 -1)" gradientUnits="userSpaceOnUse">
      <stop offset="0" stop-color="#2484c6"/>
      <stop offset=".8" stop-color="#13b9a1" stop-opacity="1"/>
      <stop offset="1" stop-color="#fff" stop-opacity="0"/>
    </linearGradient>
    <linearGradient id="linear-gradient2" x1="512.4" y1="575.9" x2="512.4" y2="575.9" gradientTransform="translate(0 1002) scale(1 -1)" gradientUnits="userSpaceOnUse">
      <stop offset="0" stop-color="#2484c6"/>
      <stop offset=".8" stop-color="#13b9a1" stop-opacity="1"/>
      <stop offset="1" stop-color="#fff" stop-opacity="0"/>
    </linearGradient>
    <linearGradient id="linear-gradient3" x1="161.2" y1="561.6" x2="161.2" y2="561.6" gradientTransform="translate(0 1002) scale(1 -1)" gradientUnits="userSpaceOnUse">
      <stop offset=".5" stop-color="#231f20"/>
      <stop offset=".6" stop-color="#44b8ea"/>
    </linearGradient>
    <linearGradient id="linear-gradient4" x1="409.3" y1="214.4" x2="409.3" y2="840.2" gradientTransform="translate(0 1002) scale(1 -1)" gradientUnits="userSpaceOnUse">
      <stop offset=".5" stop-color="#1565c0"/>
      <stop offset="1" stop-color="#e3f2fd" stop-opacity="0"/>
    </linearGradient>
    <linearGradient id="linear-gradient5" x1="512.8" y1="243.5" x2="512.8" y2="823.8" gradientTransform="translate(0 1002) scale(1 -1)" gradientUnits="userSpaceOnUse">
      <stop offset=".4" stop-color="#e3f2fd"/>
      <stop offset=".6" stop-color="#1565c0"/>
    </linearGradient>
  </defs>
  <rect id="genfill-sample-file-last-art" class="st5" x="900.2" y="-485.4" width="839.1" height="742"/>
  <rect class="st14" x="812.5" y="454.3" width="4" height="4"/>
  <rect class="st14" x="808.5" y="421.1" width="4" height="4"/>
  <rect class="st14" x="802.1" y="542.3" width="4" height="4"/>
  <line class="st8" x1="512.3" y1="392" x2="512.3" y2="392"/>
  <line class="st8" x1="512.3" y1="467.5" x2="512.3" y2="467.5"/>
  <path class="st9" d="M1332.1-207.1"/>
  <path class="st10" d="M512.3,383.2"/>
  <path class="st10" d="M512.3,365.5"/>
  <path class="st10" d="M512.3,469.2"/>
  <path class="st13" d="M446.9,378.5"/>
  <path class="st7" d="M509.6,424.6"/>
  <path class="st0" d="M512.4,426.1"/>
  <path class="st3" d="M545.1,410"/>
  <path class="st1" d="M595.1,469.3c0,0,.1,0,.2-.1-.8-.4-1.5-.8-2.3-1.2-6.8-4.2-14-8-21.5-11.1-24.9-12.9-47.4-24.7-59.3-30.9-.2-.1-1.4-.7-3-1.6-3.2-1.7-3.6-1.9-6-3.1-2.1-1.1-3.5-1.9-4.1-2.2-.4-.2-1.2-.7-2.6-1.4-1.3-.7-2.8-1.5-5.6-3.1-1.6-.9-3.9-2.2-6.9-3.9-1.8-1-3-1.7-5.3-3-1.1-.6-2.5-1.4-4.4-2.5-.2-.1-.5-.3-.7-.4,0,0-2.8-1.7-5.7-3.8-1.1-.8-33.1-27.1-33-64.1,0-36.6,31.4-78.5,77.5-78.5s77.5,35.1,77.5,78.5-14.7,53-36.8,66.8l73.5,39.3c25.3-27.9,40.8-65.2,40.8-106.1,0-86.7-69.4-157-155-157s-155,70.3-155,157,28.5,104.3,71.4,132.2c0,0-.2.1-.3.2.7.4,1.7.9,3,1.6,6.1,3.8,12.5,7.2,19.2,10.1,36.5,19.2,102.7,54.5,104.7,57.7,22.1,13.8,36.8,38.6,36.8,66.8,0,43.3-34.7,78.5-77.5,78.5s-77.5-35.1-77.5-78.5,14.9-53.2,37.1-67l-77.6-42.4c-77.6,87.4-39.3,256.8,115.2,263,85.6,0,155-70.3,155-157s-28.6-104.6-71.8-132.5h0Z"/>
  <path class="st2" d="M476.5,387.4c1.2-1.4,2.4-2.8,3.6-4.2"/>
  <path class="st6" d="M161.2,440.4"/>
  <path class="st2" d="M512.3,161.6v69.8c-53.7,4.5-95.9,48.3-95.9,101.7s42.2,97.2,95.9,101.7v352.7c172.9,0,313-140.1,313-312.9s-140.2-312.9-313-312.9h0Z"/>
  <path class="st12" d="M619.4,605.1c0-56.7-47.7-102.8-107-104.1,0-8.7,0-17.5,0-26.3V161.8c-172.9,0-313,140.1-313,312.9s140.2,314,313,312.9c1.8,0,1.9-29.6,1.6-78.4,58.6-2.1,105.5-47.9,105.5-104.1h0Z"/>
  <g>
    <rect class="st11" x="692.4" y="472.7" width="15.1" height="15.1"/>
    <rect class="st11" x="588.6" y="474" width="4" height="4"/>
    <rect class="st11" x="729.6" y="272.1" width="4" height="4"/>
    <rect class="st11" x="756.7" y="295.8" width="4" height="4"/>
    <rect class="st11" x="517.2" y="161.7" width="4" height="4"/>
    <rect class="st11" x="695.6" y="250.4" width="4" height="4"/>
    <rect class="st11" x="690.9" y="229.6" width="4" height="4"/>
    <rect class="st11" x="596.4" y="184.1" width="4" height="4"/>
    <rect class="st11" x="590.6" y="175.6" width="4" height="4"/>
    <rect class="st11" x="599.8" y="175.6" width="4" height="4"/>
    <rect class="st11" x="636.9" y="193.4" width="4" height="4"/>
    <rect class="st11" x="584.5" y="182.1" width="4" height="4"/>
    <rect class="st11" x="552.5" y="168.4" width="4" height="4"/>
    <rect class="st11" x="580.7" y="170.6" width="4" height="4"/>
    <rect class="st11" x="622.1" y="209.3" width="4" height="4"/>
    <rect class="st11" x="537.8" y="163.7" width="4" height="4"/>
    <rect class="st11" x="632.1" y="218.7" width="4" height="4"/>
    <rect class="st11" x="718" y="385.4" width="4" height="4"/>
    <rect class="st11" x="693.6" y="348.9" width="4" height="4"/>
    <rect class="st11" x="666.2" y="290.3" width="4" height="4"/>
    <rect class="st11" x="656.6" y="261.4" width="4" height="4"/>
    <rect class="st11" x="677.5" y="281.8" width="4" height="4"/>
    <rect class="st11" x="688.4" y="299.3" width="4" height="4"/>
    <rect class="st11" x="687.4" y="274.5" width="4" height="4"/>
    <rect class="st11" x="725.3" y="293.8" width="4" height="4"/>
    <rect class="st11" x="773.3" y="313.2" width="4" height="4"/>
    <rect class="st11" x="665.8" y="303.3" width="4" height="4"/>
    <rect class="st11" x="666.3" y="445.5" width="4" height="4"/>
    <rect class="st11" x="643.2" y="403.5" width="4" height="4"/>
    <rect class="st11" x="672.3" y="462.7" width="4" height="4"/>
    <rect class="st11" x="763.3" y="462.7" width="4" height="4"/>
    <rect class="st11" x="767.2" y="494.3" width="4" height="4"/>
    <rect class="st11" x="615.7" y="507.1" width="4" height="4"/>
    <rect class="st11" x="672.3" y="519.5" width="4" height="4"/>
    <rect class="st11" x="782.4" y="505.1" width="4" height="4"/>
    <rect class="st11" x="684.7" y="510.7" width="4" height="4"/>
    <rect class="st11" x="686.4" y="527.1" width="4" height="4"/>
    <rect class="st11" x="784.4" y="592.7" width="4" height="4"/>
    <rect class="st11" x="723.3" y="464.7" width="4" height="4"/>
    <rect class="st11" x="693.8" y="614" width="4" height="4"/>
    <rect class="st11" x="645" y="712" width="4" height="4"/>
    <rect class="st11" x="606.9" y="756" width="4" height="4"/>
    <rect class="st11" x="618.2" y="738.7" width="4" height="4"/>
    <rect class="st11" x="661.2" y="704.9" width="4" height="4"/>
    <rect class="st11" x="663.1" y="668.8" width="4" height="4"/>
    <rect class="st11" x="672.3" y="660.7" width="4" height="4"/>
    <rect class="st11" x="709" y="702.9" width="4" height="4"/>
    <rect class="st11" x="691.8" y="717.6" width="4" height="4"/>
    <rect class="st11" x="595.7" y="759.3" width="4" height="4"/>
    <rect class="st11" x="657.9" y="579" width="4" height="4"/>
    <rect class="st11" x="759.3" y="628.2" width="4" height="4"/>
    <rect class="st11" x="738.4" y="671.9" width="4" height="4"/>
    <rect class="st11" x="550.5" y="777" width="4" height="4"/>
    <rect class="st11" x="610.4" y="470" width="4" height="4"/>
    <rect class="st11" x="597.4" y="468.7" width="4" height="4"/>
    <rect class="st11" x="608.4" y="455.5" width="4" height="4"/>
    <g>
      <rect class="st11" x="708.1" y="307.3" width="15.1" height="15.1"/>
      <rect class="st11" x="663.7" y="347.4" width="15.1" height="15.1"/>
      <rect class="st11" x="734.5" y="282.4" width="15.1" height="15.1"/>
      <rect class="st11" x="758.1" y="348.4" width="15.1" height="15.1"/>
      <rect class="st11" x="696" y="421.7" width="15.1" height="15.1"/>
      <rect class="st11" x="711" y="630.9" width="15.1" height="15.1"/>
      <rect class="st11" x="704.1" y="678.4" width="15.1" height="15.1"/>
      <rect class="st11" x="666.3" y="562.8" width="8" height="8"/>
      <rect class="st11" x="676.1" y="544" width="15.1" height="15.1"/>
      <rect class="st11" x="693.6" y="365.5" width="15.1" height="15.1"/>
      <rect class="st11" x="776.3" y="424.4" width="15.1" height="15.1"/>
      <rect class="st11" x="776.3" y="471.4" width="15.1" height="15.1"/>
      <rect class="st11" x="652.6" y="398.8" width="15.1" height="15.1"/>
      <rect class="st11" x="668.6" y="237.3" width="15.1" height="15.1"/>
      <rect class="st11" x="644.6" y="230.8" width="15.1" height="15.1"/>
      <rect class="st11" x="614.1" y="185.8" width="15.1" height="15.1"/>
      <rect class="st11" x="722.9" y="432.3" width="15.1" height="15.1"/>
      <rect class="st11" x="670.3" y="622.6" width="15.1" height="15.1"/>
      <rect class="st11" x="737.6" y="603.1" width="15.1" height="15.1"/>
      <rect class="st11" x="798.2" y="517.9" width="15.1" height="15.1"/>
      <rect class="st11" x="667.3" y="673.4" width="15.1" height="15.1"/>
      <rect class="st11" x="701.1" y="513.4" width="15.1" height="15.1"/>
      <rect class="st11" x="765.7" y="525.5" width="15.1" height="15.1"/>
      <rect class="st11" x="621.7" y="438.6" width="15.1" height="15.1"/>
      <rect class="st11" x="596.6" y="479.6" width="15.1" height="15.1"/>
      <rect class="st11" x="660.6" y="483.3" width="15.1" height="15.1"/>
      <rect class="st11" x="750.6" y="570.8" width="15.1" height="15.1"/>
      <rect class="st11" x="691.3" y="581.3" width="15.1" height="15.1"/>
      <rect class="st11" x="636.9" y="503.1" width="15.1" height="15.1"/>
      <rect class="st11" x="629.3" y="724.8" width="15.1" height="15.1"/>
      <rect class="st11" x="731.6" y="368.3" width="15.1" height="15.1"/>
      <rect class="st11" x="636.4" y="486.8" width="8" height="8"/>
      <rect class="st11" x="660.2" y="510.7" width="8" height="8"/>
      <rect class="st11" x="693.8" y="654.7" width="8" height="8"/>
      <rect class="st11" x="662.6" y="646.3" width="8" height="8"/>
      <rect class="st11" x="653" y="683.6" width="8" height="8"/>
      <rect class="st11" x="652" y="719.5" width="8" height="8"/>
      <rect class="st11" x="654.1" y="735.4" width="8" height="8"/>
      <rect class="st11" x="683.4" y="695.2" width="8" height="8"/>
      <rect class="st11" x="723.3" y="521.1" width="8" height="8"/>
      <rect class="st11" x="750.2" y="503.1" width="8" height="8"/>
      <rect class="st11" x="693.3" y="496.2" width="8" height="8"/>
      <rect class="st11" x="637.8" y="532" width="8" height="8"/>
      <rect class="st11" x="738.4" y="539.5" width="8" height="8"/>
      <rect class="st11" x="791.5" y="561.5" width="8" height="8"/>
      <rect class="st11" x="720" y="596.4" width="8" height="8"/>
      <rect class="st11" x="778.2" y="601.6" width="8" height="8"/>
      <rect class="st11" x="665.1" y="599" width="8" height="8"/>
      <rect class="st11" x="707.7" y="547.5" width="8" height="8"/>
      <rect class="st11" x="656.2" y="525.1" width="8" height="8"/>
      <rect class="st11" x="649.3" y="551.1" width="8" height="8"/>
      <rect class="st11" x="695.6" y="284.3" width="8" height="8"/>
      <rect class="st11" x="712.3" y="275.5" width="8" height="8"/>
      <rect class="st11" x="677.5" y="258.7" width="8" height="8"/>
      <rect class="st11" x="660.2" y="270.1" width="8" height="8"/>
      <rect class="st11" x="671.7" y="333" width="8" height="8"/>
      <rect class="st11" x="716" y="250.4" width="8" height="8"/>
      <rect class="st11" x="652.2" y="455.5" width="8" height="8"/>
      <rect class="st11" x="637.9" y="468.5" width="8" height="8"/>
      <rect class="st11" x="613.7" y="479.3" width="8" height="8"/>
      <rect class="st11" x="580.7" y="765.2" width="8" height="8"/>
      <rect class="st11" x="622.2" y="751.3" width="8" height="8"/>
      <rect class="st11" x="746.2" y="640.4" width="8" height="8"/>
      <rect class="st11" x="632.4" y="205.3" width="8" height="8"/>
      <rect class="st11" x="558.6" y="166.4" width="8" height="8"/>
      <rect class="st11" x="604.4" y="181.8" width="8" height="8"/>
      <rect class="st11" x="648.6" y="218.7" width="8" height="8"/>
      <rect class="st11" x="650" y="201.6" width="8" height="8"/>
      <rect class="st11" x="672.1" y="218.7" width="8" height="8"/>
      <rect class="st11" x="723.3" y="344.4" width="8" height="8"/>
      <rect class="st11" x="694.9" y="455.5" width="8" height="8"/>
      <rect class="st11" x="721.3" y="572.4" width="8" height="8"/>
      <rect class="st11" x="671.7" y="716.9" width="8" height="8"/>
      <rect class="st11" x="746.2" y="473" width="8" height="8"/>
      <rect class="st11" x="744.6" y="329" width="8" height="8"/>
      <rect class="st11" x="763.9" y="389.5" width="8" height="8"/>
      <rect class="st11" x="806.2" y="503.1" width="8" height="8"/>
      <rect class="st11" x="799.9" y="393.5" width="8" height="8"/>
      <rect class="st11" x="720" y="401.5" width="8" height="8"/>
      <rect class="st11" x="677.5" y="309.2" width="8" height="8"/>
      <rect class="st11" x="661.8" y="379.4" width="8" height="8"/>
      <rect class="st11" x="632.1" y="417.2" width="8" height="8"/>
      <rect class="st11" x="772.3" y="325" width="8" height="8"/>
      <rect class="st11" x="658.7" y="428" width="8" height="8"/>
      <rect class="st11" x="750.7" y="441.5" width="8" height="8"/>
      <rect class="st11" x="721.8" y="492.3" width="8" height="8"/>
      <rect class="st11" x="740.6" y="521.5" width="8" height="8"/>
      <rect class="st11" x="788.3" y="451.7" width="8" height="8"/>
      <rect class="st11" x="750.6" y="414" width="8" height="8"/>
      <rect class="st11" x="689.6" y="402.4" width="8" height="8"/>
      <rect class="st11" x="695.4" y="331.1" width="8" height="8"/>
      <rect class="st11" x="570.7" y="470.7" width="8" height="8"/>
    </g>
  </g>
  <rect class="st11" x="1316.6" y="384.1" width="4" height="4"/>
  <g>
    <rect class="st11" x="692.4" y="472.6" width="15.1" height="15.1"/>
    <rect class="st11" x="588.5" y="473.9" width="4" height="4"/>
    <rect class="st11" x="729.5" y="272" width="4" height="4"/>
    <rect class="st11" x="756.7" y="295.7" width="4" height="4"/>
    <rect class="st11" x="517.2" y="161.6" width="4" height="4"/>
    <rect class="st11" x="695.5" y="250.3" width="4" height="4"/>
    <rect class="st11" x="690.8" y="229.5" width="4" height="4"/>
    <rect class="st11" x="596.3" y="184" width="4" height="4"/>
    <rect class="st11" x="636.8" y="193.3" width="4" height="4"/>
    <rect class="st11" x="584.5" y="182" width="4" height="4"/>
    <rect class="st11" x="552.5" y="168.3" width="4" height="4"/>
    <rect class="st11" x="580.7" y="170.5" width="4" height="4"/>
    <rect class="st11" x="622.1" y="209.2" width="4" height="4"/>
    <rect class="st11" x="537.8" y="163.6" width="4" height="4"/>
    <rect class="st11" x="632" y="218.6" width="4" height="4"/>
    <rect class="st11" x="718" y="385.3" width="4" height="4"/>
    <rect class="st11" x="693.5" y="348.8" width="4" height="4"/>
    <rect class="st11" x="666.1" y="290.2" width="4" height="4"/>
    <rect class="st11" x="656.5" y="261.3" width="4" height="4"/>
    <rect class="st11" x="677.5" y="281.7" width="4" height="4"/>
    <rect class="st11" x="688.4" y="299.2" width="4" height="4"/>
    <rect class="st11" x="687.3" y="274.4" width="4" height="4"/>
    <rect class="st11" x="725.3" y="293.7" width="4" height="4"/>
    <rect class="st11" x="773.3" y="313.1" width="4" height="4"/>
    <rect class="st11" x="665.8" y="303.2" width="4" height="4"/>
    <rect class="st11" x="666.3" y="445.5" width="4" height="4"/>
    <rect class="st11" x="643.2" y="403.4" width="4" height="4"/>
    <rect class="st11" x="672.2" y="462.6" width="4" height="4"/>
    <rect class="st11" x="763.3" y="462.6" width="4" height="4"/>
    <rect class="st11" x="767.1" y="494.2" width="4" height="4"/>
    <rect class="st11" x="615.7" y="507" width="4" height="4"/>
    <rect class="st11" x="672.2" y="519.4" width="4" height="4"/>
    <rect class="st11" x="782.4" y="505" width="4" height="4"/>
    <rect class="st11" x="684.6" y="510.6" width="4" height="4"/>
    <rect class="st11" x="686.3" y="527" width="4" height="4"/>
    <rect class="st11" x="784.4" y="592.6" width="4" height="4"/>
    <rect class="st11" x="723.3" y="464.6" width="4" height="4"/>
    <rect class="st11" x="693.8" y="613.9" width="4" height="4"/>
    <rect class="st11" x="645" y="711.9" width="4" height="4"/>
    <rect class="st11" x="606.9" y="755.9" width="4" height="4"/>
    <rect class="st11" x="618.1" y="738.6" width="4" height="4"/>
    <rect class="st11" x="661.1" y="704.8" width="4" height="4"/>
    <rect class="st11" x="663" y="668.7" width="4" height="4"/>
    <rect class="st11" x="672.2" y="660.7" width="4" height="4"/>
    <rect class="st11" x="708.9" y="702.8" width="4" height="4"/>
    <rect class="st11" x="691.8" y="717.5" width="4" height="4"/>
    <rect class="st11" x="595.7" y="759.2" width="4" height="4"/>
    <rect class="st11" x="657.9" y="578.9" width="4" height="4"/>
    <rect class="st11" x="759.3" y="628.1" width="4" height="4"/>
    <rect class="st11" x="738.4" y="671.8" width="4" height="4"/>
    <rect class="st11" x="550.5" y="777" width="4" height="4"/>
    <rect class="st11" x="610.4" y="469.9" width="4" height="4"/>
    <rect class="st11" x="597.4" y="468.6" width="4" height="4"/>
    <rect class="st11" x="608.4" y="455.5" width="4" height="4"/>
    <g>
      <rect class="st11" x="708.1" y="307.2" width="15.1" height="15.1"/>
      <rect class="st11" x="663.7" y="347.3" width="15.1" height="15.1"/>
      <rect class="st11" x="734.5" y="282.3" width="15.1" height="15.1"/>
      <rect class="st11" x="758.1" y="348.3" width="15.1" height="15.1"/>
      <rect class="st11" x="696" y="421.6" width="15.1" height="15.1"/>
      <rect class="st11" x="711" y="630.8" width="15.1" height="15.1"/>
      <rect class="st11" x="704.1" y="678.3" width="15.1" height="15.1"/>
      <rect class="st11" x="666.3" y="562.7" width="8" height="8"/>
      <rect class="st11" x="676.1" y="543.9" width="15.1" height="15.1"/>
      <rect class="st11" x="693.5" y="365.5" width="15.1" height="15.1"/>
      <rect class="st11" x="776.3" y="424.3" width="15.1" height="15.1"/>
      <rect class="st11" x="776.3" y="471.3" width="15.1" height="15.1"/>
      <rect class="st11" x="652.5" y="398.8" width="15.1" height="15.1"/>
      <rect class="st11" x="668.5" y="237.2" width="15.1" height="15.1"/>
      <rect class="st11" x="644.5" y="230.7" width="15.1" height="15.1"/>
      <rect class="st11" x="614.1" y="185.7" width="15.1" height="15.1"/>
      <rect class="st11" x="722.9" y="432.2" width="15.1" height="15.1"/>
      <rect class="st11" x="670.3" y="622.5" width="15.1" height="15.1"/>
      <rect class="st11" x="737.6" y="603" width="15.1" height="15.1"/>
      <rect class="st11" x="798.2" y="517.8" width="15.1" height="15.1"/>
      <rect class="st11" x="667.3" y="673.3" width="15.1" height="15.1"/>
      <rect class="st11" x="701.1" y="513.3" width="15.1" height="15.1"/>
      <rect class="st11" x="808.3" y="464.5" width="15.1" height="15.1"/>
      <rect class="st11" x="765.7" y="525.5" width="15.1" height="15.1"/>
      <rect class="st11" x="621.7" y="438.5" width="15.1" height="15.1"/>
      <rect class="st11" x="596.5" y="479.5" width="15.1" height="15.1"/>
      <rect class="st11" x="660.5" y="483.2" width="15.1" height="15.1"/>
      <rect class="st11" x="750.5" y="570.8" width="15.1" height="15.1"/>
      <rect class="st11" x="691.3" y="581.2" width="15.1" height="15.1"/>
      <rect class="st11" x="636.8" y="503" width="15.1" height="15.1"/>
      <rect class="st11" x="629.3" y="724.8" width="15.1" height="15.1"/>
      <rect class="st11" x="731.5" y="368.2" width="15.1" height="15.1"/>
      <rect class="st11" x="636.4" y="486.7" width="8" height="8"/>
      <rect class="st11" x="660.1" y="510.6" width="8" height="8"/>
      <rect class="st11" x="693.8" y="654.6" width="8" height="8"/>
      <rect class="st11" x="662.6" y="646.2" width="8" height="8"/>
      <rect class="st11" x="652.9" y="683.5" width="8" height="8"/>
      <rect class="st11" x="651.9" y="719.4" width="8" height="8"/>
      <rect class="st11" x="654" y="735.3" width="8" height="8"/>
      <rect class="st11" x="683.4" y="695.2" width="8" height="8"/>
      <rect class="st11" x="723.3" y="521" width="8" height="8"/>
      <rect class="st11" x="750.1" y="503" width="8" height="8"/>
      <rect class="st11" x="693.3" y="496.1" width="8" height="8"/>
      <rect class="st11" x="637.7" y="531.9" width="8" height="8"/>
      <rect class="st11" x="738.4" y="539.5" width="8" height="8"/>
      <rect class="st11" x="791.5" y="561.4" width="8" height="8"/>
      <rect class="st11" x="720" y="596.3" width="8" height="8"/>
      <rect class="st11" x="778.2" y="601.5" width="8" height="8"/>
      <rect class="st11" x="665" y="598.9" width="8" height="8"/>
      <rect class="st11" x="707.7" y="547.5" width="8" height="8"/>
      <rect class="st11" x="656.1" y="525" width="8" height="8"/>
      <rect class="st11" x="649.3" y="551" width="8" height="8"/>
      <rect class="st11" x="695.5" y="284.2" width="8" height="8"/>
      <rect class="st11" x="712.2" y="275.4" width="8" height="8"/>
      <rect class="st11" x="677.5" y="258.6" width="8" height="8"/>
      <rect class="st11" x="660.1" y="270" width="8" height="8"/>
      <rect class="st11" x="671.7" y="332.9" width="8" height="8"/>
      <rect class="st11" x="716" y="250.3" width="8" height="8"/>
      <rect class="st11" x="652.1" y="455.4" width="8" height="8"/>
      <rect class="st11" x="637.9" y="468.4" width="8" height="8"/>
      <rect class="st11" x="613.7" y="479.2" width="8" height="8"/>
      <rect class="st11" x="580.7" y="765.1" width="8" height="8"/>
      <rect class="st11" x="622.1" y="751.2" width="8" height="8"/>
      <rect class="st11" x="746.1" y="640.3" width="8" height="8"/>
      <rect class="st11" x="632.4" y="205.2" width="8" height="8"/>
      <rect class="st11" x="558.6" y="166.3" width="8" height="8"/>
      <rect class="st11" x="604.4" y="181.7" width="8" height="8"/>
      <rect class="st11" x="648.5" y="218.6" width="8" height="8"/>
      <rect class="st11" x="650" y="201.5" width="8" height="8"/>
      <rect class="st11" x="672" y="218.6" width="8" height="8"/>
      <rect class="st11" x="723.3" y="344.3" width="8" height="8"/>
      <rect class="st11" x="792.7" y="361.6" width="8" height="8"/>
      <rect class="st11" x="694.8" y="455.4" width="8" height="8"/>
      <rect class="st11" x="721.3" y="572.3" width="8" height="8"/>
      <rect class="st11" x="671.7" y="716.8" width="8" height="8"/>
      <rect class="st11" x="746.1" y="472.9" width="8" height="8"/>
      <rect class="st11" x="744.5" y="328.9" width="8" height="8"/>
      <rect class="st11" x="763.8" y="389.4" width="8" height="8"/>
      <rect class="st11" x="806.1" y="503" width="8" height="8"/>
      <rect class="st11" x="799.8" y="393.4" width="8" height="8"/>
      <rect class="st11" x="720" y="401.4" width="8" height="8"/>
      <rect class="st11" x="677.5" y="309.1" width="8" height="8"/>
      <rect class="st11" x="661.8" y="379.3" width="8" height="8"/>
      <rect class="st11" x="632" y="417.1" width="8" height="8"/>
      <rect class="st11" x="772.3" y="324.9" width="8" height="8"/>
      <rect class="st11" x="658.7" y="427.9" width="8" height="8"/>
      <rect class="st11" x="750.7" y="441.4" width="8" height="8"/>
      <rect class="st11" x="721.8" y="492.2" width="8" height="8"/>
      <rect class="st11" x="740.5" y="521.5" width="8" height="8"/>
      <rect class="st11" x="788.3" y="451.6" width="8" height="8"/>
      <rect class="st11" x="750.5" y="413.9" width="8" height="8"/>
      <rect class="st11" x="689.5" y="402.3" width="8" height="8"/>
      <rect class="st11" x="695.4" y="331" width="8" height="8"/>
      <rect class="st11" x="570.7" y="470.6" width="8" height="8"/>
    </g>
  </g>
  <path class="st4" d="M512.8,424.5c-.2-.1-1.4-.7-3-1.6-3.2-1.7-3.6-1.9-6-3.1-2.1-1.1-3.5-1.9-4.1-2.2-.4-.2-1.2-.7-2.6-1.4-1.3-.7-2.8-1.5-5.6-3.1-1.6-.9-3.9-2.2-6.9-3.9-1.8-1-3-1.7-5.3-3-1.1-.6-2.5-1.4-4.4-2.5-.2-.1-.5-.3-.7-.4,0,0-2.8-1.7-5.7-3.8-1.1-.8-33.1-27.1-33-64.1,0-36.6,31.4-78.5,77.5-78.5s77.5,35.1,77.5,78.5-14.7,53-36.8,66.8l73.5,39.3c25.3-27.9,40.8-65.2,40.8-106.1,0-86.7-69.4-157-155-157s-155,70.3-155,157,12.5,70.5,33.3,97.2h0l3.1,4,5.5,6.3,6.3,6.6,7.9,7.9,7.4,6.4,5.5,4,9,4.9,21.9,11.4c37.3,19.7,96.3,51.3,98.2,54.3,22.1,13.8,36.8,38.6,36.8,66.8,0,43.3-34.7,78.5-77.5,78.5s-77.5-35.1-77.5-78.5,14.9-53.2,37.1-67l-77.6-42.4c-77.6,87.4-39.3,256.8,115.2,263,85.6,0,155-70.3,155-157s-29.1-105.3-72.8-133.1c0,0-66.3-35.8-81.8-44Z"/>
  <ellipse class="st2" cx="510.2" cy="338.5" rx="72.8" ry="80.9"/>
  <rect class="st11" x="518.4" y="777" width="8" height="8"/>
  <rect class="st11" x="537.1" y="765.2" width="8" height="8"/>
  <rect class="st11" x="559.5" y="762" width="8" height="8"/>
</svg>