<?xml version="1.0" encoding="UTF-8"?>
<svg id="Layer_1" xmlns="http://www.w3.org/2000/svg" version="1.1" xmlns:xlink="http://www.w3.org/1999/xlink" viewBox="0 0 5559 5625">
  <!-- Generator: Adobe Illustrator 29.0.1, SVG Export Plug-In . SVG Version: 2.1.0 Build 192)  -->
  <defs>
    <style>
      .st0, .st1 {
        fill: #9575cd;
      }

      .st2 {
        fill: #ff8a65;
      }

      .st3 {
        fill: none;
      }

      .st4 {
        fill: #1e88e5;
      }

      .st5 {
        font-family: MyriadPro-Regular, 'Myriad Pro';
        font-size: 12px;
      }

      .st6 {
        fill: #1976d2;
        fill-opacity: .4;
      }

      .st1 {
        fill-opacity: .6;
      }

      .st7 {
        clip-path: url(#clippath);
      }
    </style>
    <clipPath id="clippath">
      <rect class="st3" x="31" y="32.4" width="5501" height="5560.2"/>
    </clipPath>
  </defs>
  <g class="st7">
    <g>
      <path class="st2" d="M2946,29.8c339.6,0,675.9,66.9,989.7,196.9,313.8,130,598.9,320.5,839,560.6,240.2,240.2,430.6,525.2,560.6,839,130,313.8,196.9,650.1,196.9,989.7h-1418.4c0-153.4-30.2-305.2-88.9-446.9-58.7-141.7-144.7-270.4-253.2-378.9-108.4-108.4-237.2-194.5-378.9-253.2-141.7-58.7-293.5-88.9-446.9-88.9V29.8Z"/>
      <path class="st6" d="M5212.2,3007c0,339.6-66.9,675.9-196.9,989.7-130,313.8-320.5,598.9-560.6,839-240.2,240.1-525.3,430.6-839,560.6-313.8,130-650.1,196.9-989.7,196.9v-1487.2c144.3,0,287.2-28.4,420.6-83.7,133.3-55.2,254.5-136.2,356.5-238.2,102.1-102.1,183-223.2,238.2-356.5,55.2-133.3,83.7-276.3,83.7-420.6h1487.2Z"/>
      <path class="st1" d="M2626,5592.9c511.5,0,1011.5-151.7,1436.8-435.8,425.3-284.2,756.8-688.1,952.5-1160.6,195.7-472.6,247-992.6,147.2-1494.2-144.1-724.3-555.4-1165.1-707.8-1324.2-193-201.4-769-740.8-1505.4-793-140.1-9.9-284.9-2.2-323.3,0-172.7,9.7-565.7,47.5-989.7,232.4-668.9,291.8-1052.5,804.2-1160.6,952.5-139.3,191.2-383.1,538.7-443.8,1008.4-12.9,100-22.8,246.9-1.5,428,621.4.1,1242.7.3,1864.1.4,0-144.7,42.9-286.1,123.3-406.4,80.4-120.3,194.6-214.1,328.3-269.4,133.7-55.4,280.7-69.8,422.6-41.6,141.9,28.2,272.2,97.9,374.5,200.2,102.3,102.3,172,232.6,200.2,374.5,28.2,141.9,13.7,289-41.6,422.6-55.4,133.7-149.1,247.9-269.4,328.3-120.3,80.4-261.7,123.3-406.4,123.3v1854.7Z"/>
      <path class="st4" d="M31.8,2616.5c0-339.6,71.9-676.5,201.9-990.2,130-313.8,320.5-598.9,560.6-839,240.2-240.1,525.2-430.6,839-560.6C1947.1,96.7,2283.4,29.8,2623,29.8v2586.2s-2591.2.5-2591.2.5Z"/>
    </g>
  </g>
  <rect class="st0" x="1146" y="4135" width="33" height="33"/>
  <rect class="st4" x="1567" y="4276.5" width="33" height="33"/>
  <rect class="st0" x="356" y="4050" width="66" height="66"/>
  <rect class="st4" x="162.5" y="3464" width="125" height="124"/>
  <rect class="st4" x="597" y="3752" width="33" height="33"/>
  <rect class="st2" x="1006.5" y="4559.5" width="33" height="33"/>
  <rect class="st4" x="1053" y="3157" width="33" height="33"/>
  <rect class="st0" x="167" y="3075" width="33" height="33"/>
  <rect class="st2" x="1097" y="3994" width="33" height="33"/>
  <rect class="st0" x="907" y="3647" width="33" height="33"/>
  <rect class="st4" x="799.5" y="4460.5" width="33" height="33"/>
  <rect class="st0" x="2055" y="4485" width="33" height="33"/>
  <rect class="st4" x="713" y="4167" width="33" height="33"/>
  <rect class="st2" x="1724" y="3526" width="33" height="33"/>
  <rect class="st0" x="1349" y="5116" width="33" height="33"/>
  <rect class="st2" x="2553" y="5349" width="33" height="33"/>
  <rect class="st4" x="432" y="3542.5" width="33" height="33"/>
  <rect class="st2" x="515" y="3109" width="125" height="124"/>
  <rect class="st0" x="1116.5" y="5003" width="125" height="124"/>
  <rect class="st4" x="496" y="4243" width="125" height="124"/>
  <rect class="st0" x="1342" y="3798" width="125" height="124"/>
  <rect class="st2" x="2155" y="5372" width="125" height="124"/>
  <rect class="st4" x="770" y="3280" width="125" height="124"/>
  <rect class="st4" x="1537.5" y="5070.5" width="125" height="124"/>
  <rect class="st2" x="2004" y="4207" width="125" height="124"/>
  <rect class="st4" x="2009" y="3673" width="125" height="124"/>
  <rect class="st4" x="1521" y="3313" width="125" height="124"/>
  <rect class="st0" x="2268" y="3768" width="125" height="124"/>
  <rect class="st0" x="1819" y="5303" width="125" height="124"/>
  <rect class="st4" x="2374" y="5142" width="125" height="124"/>
  <rect class="st4" x="990.5" y="3618" width="125" height="124"/>
  <rect class="st4" x="1992.5" y="4773" width="125" height="124"/>
  <rect class="st0" x="2330.5" y="4802" width="125" height="124"/>
  <rect class="st0" x="753.5" y="3925" width="125" height="124"/>
  <rect class="st4" x="1100" y="4711" width="125" height="124"/>
  <rect class="st4" x="1287" y="3987" width="66" height="66"/>
  <rect class="st4" x="1600" y="5306" width="66" height="66"/>
  <rect class="st4" x="2403.5" y="5394" width="66" height="66"/>
  <rect class="st4" x="1788" y="4468" width="66" height="66"/>
  <rect class="st4" x="323" y="3856" width="66" height="66"/>
  <rect class="st4" x="2084.5" y="5233" width="66" height="66"/>
  <rect class="st0" x="588" y="4510" width="66" height="66"/>
  <rect class="st0" x="1365.5" y="4637" width="66" height="66"/>
  <rect class="st0" x="1722" y="4722" width="66" height="66"/>
  <rect class="st4" x="957" y="4864" width="66" height="66"/>
  <rect class="st4" x="1808" y="5032" width="66" height="66"/>
  <rect class="st2" x="1406" y="4831" width="66" height="66"/>
  <rect class="st2" x="1439" y="3111" width="66" height="66"/>
  <rect class="st0" x="1785" y="3131" width="66" height="66"/>
  <rect class="st4" x="674" y="3555" width="66" height="66"/>
  <rect class="st4" x="1270" y="3493" width="66" height="66"/>
  <rect class="st2" x="1270" y="4378" width="66" height="66"/>
  <rect class="st0" x="2217" y="4604" width="66" height="66"/>
  <rect class="st0" x="1755" y="4220" width="66" height="66"/>
  <rect class="st0" x="890.5" y="4276.5" width="66" height="66"/>
  <rect class="st4" x="2283" y="4334" width="66" height="66"/>
  <rect class="st0" x="1666" y="3735" width="66" height="66"/>
  <rect class="st4" x="263" y="3124" width="66" height="66"/>
  <rect class="st0" x="68" y="3342" width="66" height="66"/>
  <rect class="st2" x="159" y="3719" width="66" height="66"/>
  <rect class="st4" x="2478" y="4017" width="66" height="66"/>
  <rect class="st4" x="1332.5" y="4966" width="66" height="66"/>
  <rect class="st4" x="766.5" y="4689" width="66" height="66"/>
  <rect class="st0" x="1841" y="3954" width="66" height="66"/>
  <rect class="st4" x="1841" y="3493" width="66" height="66"/>
  <text class="st5" transform="translate(6568.2 1877)"><tspan x="0" y="0">Lorem ipsum</tspan></text>
  <text class="st5" transform="translate(7400.2 2324.4)"><tspan x="0" y="0">Lor</tspan></text>
  <path class="st0" d="M6310.9,2872"/>
</svg>